<svg width="51" height="51" viewBox="0 0 51 51" fill="none" xmlns="http://www.w3.org/2000/svg">
    <path d="M32.7176 1.5C31.9952 1.5 31.2778 1.61379 30.5851 1.83643L27.8787 2.71212C27.1365 2.9496 26.3746 3.07328 25.6077 3.07328C24.8407 3.07328 24.0788 2.9496 23.3366 2.71212L20.6302 1.83643C19.9425 1.61379 19.2251 1.5 18.5027 1.5C15.92 1.5 13.5797 2.9397 12.3972 5.25015L11.1058 7.78324C10.3933 9.17347 9.28502 10.2817 7.89471 10.9941L5.3664 12.2854C2.33838 13.829 0.903534 17.2922 1.95246 20.5229L2.82821 23.2291C3.30814 24.7134 3.30814 26.2817 2.82821 27.7709L1.95246 30.4771C0.908482 33.7078 2.34333 37.171 5.3664 38.7146L7.89965 40.0059C9.28997 40.7134 10.3983 41.8265 11.1107 43.2168L12.4021 45.7498C13.5846 48.0652 15.9249 49.5 18.5076 49.5C19.23 49.5 19.9474 49.3862 20.6401 49.1636L23.3416 48.2879C24.0837 48.0504 24.8457 47.9267 25.6126 47.9267C26.3795 47.9267 27.1415 48.0504 27.8836 48.2879L30.59 49.1636C31.2827 49.3862 32.0001 49.5 32.7225 49.5C35.3052 49.5 37.6455 48.0603 38.828 45.7498L40.1194 43.2168C40.8319 41.8265 41.9402 40.7183 43.3305 40.0059L45.8588 38.7146C48.8819 37.171 50.3167 33.7028 49.2727 30.4771L48.397 27.7709C47.9171 26.2866 47.9171 24.7183 48.397 23.2291L49.2727 20.5229C50.3167 17.2922 48.8819 13.829 45.8588 12.2854L43.3255 10.9941C41.9352 10.2866 40.8269 9.17347 40.1145 7.78324L38.8231 5.25015C37.6455 2.9397 35.3052 1.5 32.7176 1.5Z" stroke="white" stroke-width="2"/>
    <path d="M15.748 28.3438H28.2182C29.8908 28.3438 31.2699 28.0394 32.3556 27.4305C33.4413 26.8216 34.2482 26.011 34.7764 24.9987C35.3046 23.9864 35.5687 22.8713 35.5687 21.6536C35.5687 20.4359 35.3046 19.3208 34.7764 18.3085C34.2482 17.2962 33.4413 16.4856 32.3556 15.8767C31.2699 15.2678 29.8908 14.9634 28.2182 14.9634H22.3949V38.5975M29.0704 32.6899H15.748" stroke="#F0AB00" stroke-width="2"/>
</svg>
