<svg width="50" height="50" viewBox="0 0 50 50" fill="none" xmlns="http://www.w3.org/2000/svg">
    <path d="M32.1062 1C31.3839 1 30.6664 1.11379 29.9738 1.33643L27.2673 2.21212C26.5252 2.4496 25.7632 2.57328 24.9963 2.57328C24.2294 2.57328 23.4675 2.4496 22.7253 2.21212L20.0189 1.33643C19.3311 1.11379 18.6137 1 17.8914 1C15.3086 1 12.9683 2.4397 11.7858 4.75015L10.4945 7.28324C9.78199 8.67347 8.67369 9.7817 7.28338 10.4941L4.75508 11.7854C1.72705 13.329 0.292206 16.7922 1.34113 20.0229L2.21688 22.7291C2.69681 24.2134 2.69681 25.7817 2.21688 27.2709L1.34113 29.9771C0.297154 33.2078 1.732 36.671 4.75508 38.2146L7.28832 39.5059C8.67864 40.2134 9.78694 41.3265 10.4994 42.7168L11.7908 45.2498C12.9733 47.5652 15.3136 49 17.8963 49C18.6187 49 19.3361 48.8862 20.0288 48.6636L22.7303 47.7879C23.4724 47.5504 24.2344 47.4267 25.0013 47.4267C25.7682 47.4267 26.5301 47.5504 27.2723 47.7879L29.9787 48.6636C30.6714 48.8862 31.3888 49 32.1112 49C34.6939 49 37.0342 47.5603 38.2167 45.2498L39.5081 42.7168C40.2206 41.3265 41.3288 40.2183 42.7192 39.5059L45.2475 38.2146C48.2705 36.671 49.7054 33.2028 48.6614 29.9771L47.7857 27.2709C47.3057 25.7866 47.3057 24.2183 47.7857 22.7291L48.6614 20.0229C49.7054 16.7922 48.2705 13.329 45.2475 11.7854L42.7142 10.4941C41.3239 9.78664 40.2156 8.67347 39.5031 7.28324L38.2118 4.75015C37.0342 2.4397 34.6939 1 32.1062 1Z" stroke="#033870" stroke-width="2"/>
    <path d="M15.1368 27.8438H27.607C29.2796 27.8438 30.6587 27.5394 31.7444 26.9305C32.8301 26.3216 33.637 25.511 34.1652 24.4987C34.6934 23.4864 34.9575 22.3713 34.9575 21.1536C34.9575 19.9359 34.6934 18.8208 34.1652 17.8085C33.637 16.7962 32.8301 15.9856 31.7444 15.3767C30.6587 14.7678 29.2796 14.4634 27.607 14.4634H21.7836V38.0975M28.4592 32.1899H15.1368" stroke="#F0AB00" stroke-width="2"/>
</svg>
