<svg width="51" height="45" viewBox="0 0 51 45" fill="none" xmlns="http://www.w3.org/2000/svg">
    <path d="M27.6665 12.7236C28.9824 14.705 31.4955 16.4371 34.0412 16.4371C38.1014 16.4371 41.3939 13.1387 41.3939 9.09124C41.3939 5.04442 38.0917 1.74536 34.0412 1.74536C31.4858 1.74536 29.2447 3.06282 27.9286 5.05384L27.5461 5.63249" stroke="#F0AB00" stroke-width="2" stroke-linecap="round" stroke-linejoin="round"/>
    <path d="M49.6113 43.2199C42.9571 40.7158 34.2741 39.5117 25.6168 39.5117C25.0327 39.5117 24.4484 39.5173 23.8646 39.5286M1.61133 43.2543C4.75024 42.0731 8.34299 41.1734 12.1717 40.5526M12.1717 40.5526L16.1313 35.3108M12.1717 40.5526C15.9119 39.9461 19.8772 39.6056 23.8646 39.5286M16.1313 35.3108L8.15491 26.4527M16.1313 35.3108L22.8692 35.298M22.8692 35.298L18.07 14.9991M22.8692 35.298L36.9767 35.2877L40.9868 40.8659M22.8692 35.298L23.8646 39.5286M18.07 14.9991L4.23188 18.2655C3.5525 15.3303 4.57192 11.7619 6.39279 9.41993C7.97393 7.39413 9.91787 5.97397 12.7313 4.71214C13.8325 4.21821 15.6479 3.68975 15.6479 3.68975M18.07 14.9991L23.9228 13.5677M12.1937 16.3442C11.6172 8.39223 15.6479 3.68975 15.6479 3.68975M15.6479 3.68975C15.6479 3.68975 17.4761 3.40523 18.657 3.387C21.9772 3.33576 24.6299 3.94662 26.9453 5.28509L27.5461 5.63239L28.1231 6.04267C30.042 7.46846 31.9582 9.40587 31.9582 11.6743L27.6665 12.7235L23.9228 13.5677M15.6479 3.68975C15.6479 3.68975 22.4732 8.18546 23.9228 13.5677" stroke="white" stroke-width="2" stroke-linecap="round" stroke-linejoin="round"/>
    <path d="M14.3042 28.5459L17.6631 32.5766" stroke="white" stroke-width="2" stroke-linecap="round"/>
</svg>
