<svg width="49" height="44" viewBox="0 0 49 44" fill="none" xmlns="http://www.w3.org/2000/svg">
    <path d="M26.0551 12.2238C27.371 14.2052 29.884 15.9374 32.4298 15.9374C36.49 15.9374 39.7824 12.6389 39.7824 8.59149C39.7824 4.54466 36.4803 1.24561 32.4298 1.24561C29.8744 1.24561 27.6332 2.56307 26.3172 4.55409L25.9347 5.13274" stroke="#F0AB00" stroke-width="2" stroke-linecap="round" stroke-linejoin="round"/>
    <path d="M48 42.7202C41.3458 40.2161 32.6627 39.0119 24.0055 39.0119C23.4214 39.0119 22.8371 39.0175 22.2532 39.0288M0 42.7546C3.13891 41.5733 6.73167 40.6737 10.5603 40.0528M10.5603 40.0528L14.5199 34.811M10.5603 40.0528C14.3005 39.4463 18.2659 39.1059 22.2532 39.0288M14.5199 34.811L6.54358 25.953M14.5199 34.811L21.2578 34.7983M21.2578 34.7983L16.4587 14.4993M21.2578 34.7983L35.3654 34.788L39.3755 40.3661M21.2578 34.7983L22.2532 39.0288M16.4587 14.4993L2.62056 17.7657C1.94117 14.8305 2.96059 11.2621 4.78146 8.92018C6.3626 6.89437 8.30654 5.47422 11.1199 4.21239C12.2212 3.71845 14.0366 3.19 14.0366 3.19M16.4587 14.4993L22.3114 13.068M10.5824 15.8444C10.0059 7.89247 14.0366 3.19 14.0366 3.19M14.0366 3.19C14.0366 3.19 15.8648 2.90547 17.0457 2.88725C20.3659 2.83601 23.0186 3.44686 25.334 4.78534L25.9348 5.13263L26.5118 5.54292C28.4306 6.9687 30.3468 8.90611 30.3468 11.1746L26.0551 12.2237L22.3114 13.068M14.0366 3.19C14.0366 3.19 20.8619 7.6857 22.3114 13.068" stroke="#033870" stroke-width="2" stroke-linecap="round" stroke-linejoin="round"/>
    <path d="M12.693 28.0459L16.0519 32.0766" stroke="#033870" stroke-width="2" stroke-linecap="round"/>
</svg>
