<svg width="57" height="52" viewBox="0 0 57 52" fill="none" xmlns="http://www.w3.org/2000/svg">
    <path d="M12.519 41.1626C6.08665 40.5568 2.03235 37.9966 2.03235 37.9966" stroke="#033870" stroke-width="1.6" stroke-linecap="round" stroke-linejoin="round"/>
    <path d="M55.1086 40.3119C55.1086 40.3119 43.2423 31.4016 28.3401 38.3006C25.2767 39.7191 22.0429 40.8593 19.344 41.2707" stroke="#033870" stroke-width="1.6" stroke-linecap="round" stroke-linejoin="round"/>
    <path d="M55.1086 49.0203C55.1086 49.0203 50.2663 45.3841 42.8834 44.5562" stroke="#033870" stroke-width="1.6" stroke-linecap="round" stroke-linejoin="round"/>
    <path d="M46.8232 36.4414C48.3287 35.5637 49.722 34.4661 50.9536 33.1919" stroke="#033870" stroke-width="1.6" stroke-linecap="round" stroke-linejoin="round"/>
    <path d="M20.5759 38.1587H28.3852" stroke="#033870" stroke-width="1.6" stroke-linecap="round" stroke-linejoin="round"/>
    <path d="M1.9454 29.8825C1.74008 29.4856 1.52771 29.0769 1.31651 28.6706C0.356909 26.8266 1.69502 24.6226 3.7737 24.6226H3.77644C4.80148 24.6226 5.74266 25.1888 6.22305 26.0943L6.6333 26.8674L50.1774 26.8435L50.532 26.1421C51.0034 25.2099 51.959 24.6226 53.0037 24.6226C55.0772 24.6226 56.4154 26.8172 55.4659 28.6608L54.8421 29.872C53.8304 31.8358 51.8066 33.0701 49.5971 33.0701H7.185C4.97976 33.0701 2.95868 31.8413 1.9454 29.8825Z" stroke="#033870" stroke-width="1.6" stroke-linecap="round" stroke-linejoin="round"/>
    <path d="M13.9747 37.9984C9.70529 38.2511 8.299 37.8299 6.91309 34.4927" stroke="#033870" stroke-width="1.6" stroke-linecap="round" stroke-linejoin="round"/>
    <path d="M16.9793 49.7099C17.2794 49.4345 17.5122 49.0944 17.6513 48.6994L19.6618 42.9876L18.5572 36.7402L13.1213 40.4995L11.0524 46.3762C10.6327 47.5678 11.1911 48.9039 12.336 49.7319" stroke="#F0AB00" stroke-width="1.6" stroke-linecap="round" stroke-linejoin="round"/>
    <path d="M22.6197 25.1768L16.3512 42.3438" stroke="#F0AB00" stroke-width="1.6" stroke-linecap="round" stroke-linejoin="round"/>
    <path d="M35.0819 44.8364C32.9316 45.2365 30.673 45.9289 28.3401 47.0091C13.4382 53.9082 2.03235 46.7051 2.03235 46.7051" stroke="#033870" stroke-width="1.6" stroke-linecap="round" stroke-linejoin="round"/>
    <path d="M10.3475 22.3876L9.91296 14.9541C9.91375 13.5189 11.0838 12.3594 12.519 12.3712" stroke="#033870" stroke-width="1.6" stroke-linecap="round" stroke-linejoin="round"/>
    <path d="M18.0878 24.5635L19.3514 26.8686" stroke="#033870" stroke-width="1.6" stroke-linecap="round" stroke-linejoin="round"/>
    <path d="M18.0259 15.4009L17.9675 19.5974" stroke="#033870" stroke-width="1.6" stroke-linecap="round" stroke-linejoin="round"/>
    <path d="M25.2718 16.9502L23.6895 21.7211" stroke="#F0AB00" stroke-width="1.6" stroke-linecap="round" stroke-linejoin="round"/>
    <path d="M18.3813 15.401L22.014 15.2878C22.6535 15.2588 23.24 14.923 23.5884 14.3862L26.5142 9.87894C26.9609 9.19088 26.765 8.27085 26.0769 7.82455C25.3936 7.381 24.4802 7.57064 24.03 8.25008L21.2487 12.4478L15.9476 12.3636" stroke="#033870" stroke-width="1.6" stroke-linecap="round" stroke-linejoin="round"/>
    <path d="M16.4766 16.6021L18.826 21.3436L23.5155 22.326C24.3129 22.4929 24.827 23.2715 24.6679 24.0704C24.5076 24.8752 23.7251 25.3971 22.9207 25.2369L18.2571 24.3075C17.252 24.1072 16.4119 23.4215 16.0138 22.4776L13.155 16.9524" stroke="#033870" stroke-width="1.6" stroke-linecap="round" stroke-linejoin="round"/>
    <path d="M12.6464 12.1383C12.6483 13.0497 13.3893 13.7871 14.3007 13.7852C15.2121 13.7832 15.9495 13.0423 15.9476 12.1309" stroke="#033870" stroke-width="1.6" stroke-linecap="round" stroke-linejoin="round"/>
    <path d="M15.7862 22.3774L10.3475 22.3876V23.5494C10.3475 25.3828 11.8338 26.869 13.6671 26.869H14.318" stroke="#033870" stroke-width="1.6" stroke-linecap="round" stroke-linejoin="round"/>
    <path d="M46.3366 25.333L40.1249 42.3441" stroke="#F0AB00" stroke-width="1.6" stroke-linecap="round" stroke-linejoin="round"/>
    <path d="M49.0898 16.5562L47.5074 21.3271" stroke="#F0AB00" stroke-width="1.6" stroke-linecap="round" stroke-linejoin="round"/>
    <path d="M37.1607 50.2796C38.9827 50.9211 40.8921 50.2138 41.425 48.6994L43.4355 42.9876L41.9144 37.4424L36.8946 40.4995L34.8258 46.3762C34.2929 47.8902 35.3379 49.6378 37.1599 50.2792L37.1607 50.2796Z" stroke="#F0AB00" stroke-width="1.6" stroke-linecap="round" stroke-linejoin="round"/>
    <path d="M34.1216 21.7314L33.687 14.2979C33.6878 12.8626 34.8578 11.7032 36.2931 11.7149" stroke="#033870" stroke-width="1.6" stroke-linecap="round" stroke-linejoin="round"/>
    <path d="M41.8619 23.9077L43.1252 26.2129" stroke="#033870" stroke-width="1.6" stroke-linecap="round" stroke-linejoin="round"/>
    <path d="M41.7996 14.7451L41.7412 18.9417" stroke="#033870" stroke-width="1.6" stroke-linecap="round" stroke-linejoin="round"/>
    <path d="M42.1554 14.7448L45.788 14.6316C46.4275 14.6026 47.0141 14.2668 47.3624 13.7299L50.2883 9.22269C50.7349 8.53463 50.539 7.6146 49.851 7.1683C49.1676 6.72475 48.2542 6.91439 47.804 7.59383L45.0228 11.7915L39.7217 11.7073" stroke="#033870" stroke-width="1.6" stroke-linecap="round" stroke-linejoin="round"/>
    <path d="M40.2506 15.9458L42.6001 20.6874L47.2895 21.6697C48.0869 21.8366 48.601 22.6152 48.4419 23.4141C48.2817 24.219 47.4992 24.7409 46.6947 24.5806L42.0311 23.6512C41.0261 23.451 40.186 22.7653 39.7879 21.8213L36.9291 16.2961" stroke="#033870" stroke-width="1.6" stroke-linecap="round" stroke-linejoin="round"/>
    <circle cx="38.3603" cy="5.72247" r="4.23907" stroke="#033870" stroke-width="1.6"/>
    <circle cx="14.3603" cy="6.72247" r="4.23907" stroke="#033870" stroke-width="1.6"/>
    <path d="M36.4205 11.4821C36.4225 12.3935 37.1634 13.1309 38.0749 13.1289C38.9863 13.127 39.7237 12.386 39.7217 11.4746" stroke="#033870" stroke-width="1.6" stroke-linecap="round" stroke-linejoin="round"/>
    <path d="M39.5599 21.7212L34.1212 21.7314V22.8932C34.1212 24.7266 35.6074 26.2128 37.4408 26.2128H38.0917" stroke="#033870" stroke-width="1.6" stroke-linecap="round" stroke-linejoin="round"/>
</svg>
