<svg width="58" height="51" viewBox="0 0 58 51" fill="none" xmlns="http://www.w3.org/2000/svg">
    <path d="M13.1304 40.6628C6.6981 40.0571 2.6438 37.4968 2.6438 37.4968" stroke="white" stroke-width="1.6" stroke-linecap="round" stroke-linejoin="round"/>
    <path d="M55.7199 39.8122C55.7199 39.8122 43.8536 30.9019 28.9514 37.8009C25.8881 39.2193 22.6543 40.3596 19.9553 40.771" stroke="white" stroke-width="1.6" stroke-linecap="round" stroke-linejoin="round"/>
    <path d="M55.7198 48.5208C55.7198 48.5208 50.8776 44.8846 43.4946 44.0566" stroke="white" stroke-width="1.6" stroke-linecap="round" stroke-linejoin="round"/>
    <path d="M47.4346 35.9416C48.94 35.0639 50.3334 33.9664 51.5649 32.6921" stroke="white" stroke-width="1.6" stroke-linecap="round" stroke-linejoin="round"/>
    <path d="M21.1873 37.6587H28.9965" stroke="white" stroke-width="1.6" stroke-linecap="round" stroke-linejoin="round"/>
    <path d="M2.55673 29.3828C2.35141 28.9858 2.13904 28.5772 1.92784 28.1708C0.968238 26.3269 2.30635 24.1228 4.38503 24.1228H4.38777C5.41281 24.1228 6.35399 24.689 6.83438 25.5945L7.24463 26.3676L50.7887 26.3437L51.1433 25.6423C51.6147 24.7102 52.5704 24.1228 53.615 24.1228C55.6886 24.1228 57.0267 26.3175 56.0773 28.161L55.4535 29.3722C54.4418 31.3361 52.4179 32.5703 50.2084 32.5703H7.79633C5.59109 32.5703 3.57001 31.3416 2.55673 29.3828Z" stroke="white" stroke-width="1.6" stroke-linecap="round" stroke-linejoin="round"/>
    <path d="M14.586 37.4984C10.3166 37.7511 8.91033 37.3299 7.52441 33.9927" stroke="white" stroke-width="1.6" stroke-linecap="round" stroke-linejoin="round"/>
    <path d="M17.5907 49.2102C17.8909 48.9347 18.1236 48.5946 18.2627 48.1996L20.2732 42.4879L19.1686 36.2405L13.7327 39.9997L11.6638 45.8765C11.2442 47.068 11.8026 48.4042 12.9475 49.2321" stroke="#F0AB00" stroke-width="1.6" stroke-linecap="round" stroke-linejoin="round"/>
    <path d="M23.2312 24.677L16.9626 41.844" stroke="#F0AB00" stroke-width="1.6" stroke-linecap="round" stroke-linejoin="round"/>
    <path d="M35.6934 44.3367C33.543 44.7367 31.2845 45.4291 28.9515 46.5094C14.0497 53.4084 2.6438 46.2053 2.6438 46.2053" stroke="white" stroke-width="1.6" stroke-linecap="round" stroke-linejoin="round"/>
    <path d="M10.9587 21.8874L10.5242 14.4539C10.525 13.0186 11.695 11.8592 13.1303 11.8709" stroke="white" stroke-width="1.6" stroke-linecap="round" stroke-linejoin="round"/>
    <path d="M18.699 24.0637L19.9626 26.3689" stroke="white" stroke-width="1.6" stroke-linecap="round" stroke-linejoin="round"/>
    <path d="M18.637 14.9011L18.5786 19.0977" stroke="white" stroke-width="1.6" stroke-linecap="round" stroke-linejoin="round"/>
    <path d="M25.8828 16.4504L24.3005 21.2214" stroke="#F0AB00" stroke-width="1.6" stroke-linecap="round" stroke-linejoin="round"/>
    <path d="M18.9925 14.901L22.6252 14.7878C23.2647 14.7588 23.8513 14.423 24.1996 13.8862L27.1254 9.37894C27.5721 8.69088 27.3762 7.77085 26.6881 7.32455C26.0048 6.881 25.0914 7.07064 24.6412 7.75008L21.86 11.9478L16.5588 11.8636" stroke="white" stroke-width="1.6" stroke-linecap="round" stroke-linejoin="round"/>
    <path d="M17.0877 16.1021L19.4371 20.8436L24.1266 21.826C24.924 21.9929 25.4381 22.7715 25.279 23.5704C25.1187 24.3752 24.3362 24.8971 23.5318 24.7369L18.8682 23.8075C17.8631 23.6072 17.023 22.9215 16.6249 21.9776L13.7661 16.4524" stroke="white" stroke-width="1.6" stroke-linecap="round" stroke-linejoin="round"/>
    <path d="M13.2576 11.6383C13.2595 12.5497 14.0005 13.2871 14.9119 13.2852C15.8233 13.2832 16.5607 12.5423 16.5588 11.6309" stroke="white" stroke-width="1.6" stroke-linecap="round" stroke-linejoin="round"/>
    <path d="M16.3974 21.8772L10.9587 21.8874V23.0492C10.9587 24.8826 12.445 26.3688 14.2784 26.3688H14.9292" stroke="white" stroke-width="1.6" stroke-linecap="round" stroke-linejoin="round"/>
    <path d="M46.9478 24.8328L40.7361 41.8438" stroke="#F0AB00" stroke-width="1.6" stroke-linecap="round" stroke-linejoin="round"/>
    <path d="M49.701 16.0562L48.1187 20.8271" stroke="#F0AB00" stroke-width="1.6" stroke-linecap="round" stroke-linejoin="round"/>
    <path d="M37.7719 49.7796C39.5939 50.4211 41.5033 49.7138 42.0362 48.1994L44.0467 42.4876L42.5256 36.9424L37.5058 39.9995L35.437 45.8762C34.9041 47.3902 35.9491 49.1378 37.7711 49.7792L37.7719 49.7796Z" stroke="#F0AB00" stroke-width="1.6" stroke-linecap="round" stroke-linejoin="round"/>
    <path d="M34.7329 21.2316L34.2983 13.7981C34.2991 12.3629 35.4691 11.2034 36.9044 11.2152" stroke="white" stroke-width="1.6" stroke-linecap="round" stroke-linejoin="round"/>
    <path d="M42.4731 23.4077L43.7364 25.7129" stroke="white" stroke-width="1.6" stroke-linecap="round" stroke-linejoin="round"/>
    <path d="M42.4107 14.2451L42.3523 18.4417" stroke="white" stroke-width="1.6" stroke-linecap="round" stroke-linejoin="round"/>
    <path d="M42.7667 14.2453L46.3994 14.132C47.0388 14.1031 47.6254 13.7672 47.9738 13.2304L50.8996 8.72317C51.3463 8.03512 51.1504 7.11509 50.4623 6.66879C49.7789 6.22524 48.8656 6.41488 48.4154 7.09432L45.6341 11.292L40.333 11.2078" stroke="white" stroke-width="1.6" stroke-linecap="round" stroke-linejoin="round"/>
    <path d="M40.8619 15.446L43.2113 20.1876L47.9008 21.17C48.6981 21.3369 49.2122 22.1154 49.0531 22.9144C48.8929 23.7192 48.1104 24.2411 47.3059 24.0809L42.6423 23.1515C41.6373 22.9512 40.7972 22.2655 40.3991 21.3216L37.5403 15.7963" stroke="white" stroke-width="1.6" stroke-linecap="round" stroke-linejoin="round"/>
    <circle cx="38.9715" cy="5.22272" r="4.23907" stroke="white" stroke-width="1.6"/>
    <circle cx="14.9715" cy="6.22272" r="4.23907" stroke="white" stroke-width="1.6"/>
    <path d="M37.0317 10.9823C37.0337 11.8937 37.7747 12.6311 38.6861 12.6292C39.5975 12.6272 40.3349 11.8863 40.3329 10.9749" stroke="white" stroke-width="1.6" stroke-linecap="round" stroke-linejoin="round"/>
    <path d="M40.1711 21.2214L34.7324 21.2316V22.3934C34.7324 24.2268 36.2186 25.713 38.052 25.713H38.7029" stroke="white" stroke-width="1.6" stroke-linecap="round" stroke-linejoin="round"/>
</svg>
